<mxfile host="Electron" modified="2024-12-14T16:10:13.115Z" agent="Mozilla/5.0 (Windows NT 10.0; Win64; x64) AppleWebKit/537.36 (KHTML, like Gecko) draw.io/24.0.4 Chrome/120.0.6099.109 Electron/28.1.0 Safari/537.36" etag="o4uVTBErOdcTnHHA0Eov" version="24.0.4" type="device">
  <diagram name="Page-1" id="jeo_uYeCJIsTd6yflG8m">
    <mxGraphModel dx="1660" dy="822" grid="1" gridSize="10" guides="1" tooltips="1" connect="1" arrows="1" fold="1" page="1" pageScale="1" pageWidth="610" pageHeight="500" math="0" shadow="0">
      <root>
        <mxCell id="0" />
        <mxCell id="1" parent="0" />
        <mxCell id="HskousHJSDaTPaHS8hvL-1" value="Preprocess DAIC-WOZ&lt;div&gt;MFCC and MCC&lt;/div&gt;" style="rounded=0;whiteSpace=wrap;html=1;" parent="1" vertex="1">
          <mxGeometry x="165" y="10" width="120" height="60" as="geometry" />
        </mxCell>
        <mxCell id="HskousHJSDaTPaHS8hvL-3" value="&lt;b&gt;Using Train/Test&lt;/b&gt;&lt;div&gt;Audio pieces are separated by participant. The same participant is not included in both the Train and Test sets.&lt;br&gt;&lt;/div&gt;" style="rounded=0;whiteSpace=wrap;html=1;" parent="1" vertex="1">
          <mxGeometry x="225" y="120" width="150" height="90" as="geometry" />
        </mxCell>
        <mxCell id="HskousHJSDaTPaHS8hvL-5" value="Unbalanced dataset" style="rounded=0;whiteSpace=wrap;html=1;" parent="1" vertex="1">
          <mxGeometry x="155" y="235" width="120" height="60" as="geometry" />
        </mxCell>
        <mxCell id="HskousHJSDaTPaHS8hvL-6" value="Balanced Dataset" style="rounded=0;whiteSpace=wrap;html=1;" parent="1" vertex="1">
          <mxGeometry x="325" y="235" width="120" height="60" as="geometry" />
        </mxCell>
        <mxCell id="HskousHJSDaTPaHS8hvL-8" value="&lt;div&gt;Using MFCC&lt;/div&gt;Different CNNs:&lt;div&gt;&amp;nbsp;Test: ~ 50% acc.&lt;/div&gt;" style="rounded=0;whiteSpace=wrap;html=1;" parent="1" vertex="1">
          <mxGeometry x="155" y="335" width="120" height="60" as="geometry" />
        </mxCell>
        <mxCell id="HskousHJSDaTPaHS8hvL-9" value="&lt;b&gt;Split Train to Train &amp;amp; Test&lt;/b&gt; Audio pieces are mixed. An audio from the same participants can appear in both the Train and Test sets." style="rounded=0;whiteSpace=wrap;html=1;" parent="1" vertex="1">
          <mxGeometry x="450" y="120" width="150" height="95" as="geometry" />
        </mxCell>
        <mxCell id="HskousHJSDaTPaHS8hvL-10" value="Balanced Dataset" style="rounded=0;whiteSpace=wrap;html=1;" parent="1" vertex="1">
          <mxGeometry x="465" y="235" width="120" height="60" as="geometry" />
        </mxCell>
        <mxCell id="HskousHJSDaTPaHS8hvL-12" value="&lt;div&gt;MFCC&lt;/div&gt;&lt;div&gt;&amp;nbsp;Test:&amp;nbsp;&lt;span style=&quot;background-color: initial;&quot;&gt;74% acc.&lt;/span&gt;&lt;/div&gt;" style="rounded=0;whiteSpace=wrap;html=1;fillColor=none;" parent="1" vertex="1">
          <mxGeometry x="300" y="430" width="120" height="60" as="geometry" />
        </mxCell>
        <mxCell id="HskousHJSDaTPaHS8hvL-17" value="" style="endArrow=none;html=1;rounded=0;entryX=0.5;entryY=0;entryDx=0;entryDy=0;exitX=0.5;exitY=0;exitDx=0;exitDy=0;" parent="1" source="HskousHJSDaTPaHS8hvL-3" target="HskousHJSDaTPaHS8hvL-9" edge="1">
          <mxGeometry width="50" height="50" relative="1" as="geometry">
            <mxPoint x="245" y="115" as="sourcePoint" />
            <mxPoint x="295" y="65" as="targetPoint" />
            <Array as="points">
              <mxPoint x="300" y="100" />
              <mxPoint x="410" y="100" />
              <mxPoint x="525" y="100" />
            </Array>
          </mxGeometry>
        </mxCell>
        <mxCell id="HskousHJSDaTPaHS8hvL-19" value="" style="endArrow=none;html=1;rounded=0;entryX=0.5;entryY=1;entryDx=0;entryDy=0;" parent="1" target="HskousHJSDaTPaHS8hvL-1" edge="1">
          <mxGeometry width="50" height="50" relative="1" as="geometry">
            <mxPoint x="225" y="90" as="sourcePoint" />
            <mxPoint x="230" y="100" as="targetPoint" />
          </mxGeometry>
        </mxCell>
        <mxCell id="HskousHJSDaTPaHS8hvL-22" value="" style="endArrow=classic;html=1;rounded=0;exitX=0;exitY=0.5;exitDx=0;exitDy=0;entryX=0.5;entryY=0;entryDx=0;entryDy=0;" parent="1" source="HskousHJSDaTPaHS8hvL-3" target="HskousHJSDaTPaHS8hvL-5" edge="1">
          <mxGeometry width="50" height="50" relative="1" as="geometry">
            <mxPoint x="345" y="285" as="sourcePoint" />
            <mxPoint x="395" y="235" as="targetPoint" />
            <Array as="points">
              <mxPoint x="215" y="165" />
            </Array>
          </mxGeometry>
        </mxCell>
        <mxCell id="HskousHJSDaTPaHS8hvL-23" value="" style="endArrow=classic;html=1;rounded=0;exitX=1;exitY=0.5;exitDx=0;exitDy=0;entryX=0.5;entryY=0;entryDx=0;entryDy=0;" parent="1" source="HskousHJSDaTPaHS8hvL-3" target="HskousHJSDaTPaHS8hvL-6" edge="1">
          <mxGeometry width="50" height="50" relative="1" as="geometry">
            <mxPoint x="245" y="175" as="sourcePoint" />
            <mxPoint x="225" y="235" as="targetPoint" />
            <Array as="points">
              <mxPoint x="385" y="165" />
            </Array>
          </mxGeometry>
        </mxCell>
        <mxCell id="HskousHJSDaTPaHS8hvL-24" value="" style="endArrow=classic;html=1;rounded=0;exitX=0.5;exitY=1;exitDx=0;exitDy=0;" parent="1" source="HskousHJSDaTPaHS8hvL-9" target="HskousHJSDaTPaHS8hvL-10" edge="1">
          <mxGeometry width="50" height="50" relative="1" as="geometry">
            <mxPoint x="345" y="285" as="sourcePoint" />
            <mxPoint x="395" y="235" as="targetPoint" />
          </mxGeometry>
        </mxCell>
        <mxCell id="bwJjmB0yOy6E5qjPWk6F-1" value="&lt;div&gt;MCC&lt;/div&gt;&lt;div&gt;&amp;nbsp;Test: 58&lt;span style=&quot;background-color: initial;&quot;&gt;% acc.&lt;/span&gt;&lt;/div&gt;" style="rounded=0;whiteSpace=wrap;html=1;" parent="1" vertex="1">
          <mxGeometry x="465" y="430" width="120" height="60" as="geometry" />
        </mxCell>
        <mxCell id="bwJjmB0yOy6E5qjPWk6F-2" value="" style="endArrow=classic;html=1;rounded=0;exitX=0.5;exitY=1;exitDx=0;exitDy=0;entryX=1;entryY=0.5;entryDx=0;entryDy=0;" parent="1" source="HskousHJSDaTPaHS8hvL-6" target="HskousHJSDaTPaHS8hvL-8" edge="1">
          <mxGeometry width="50" height="50" relative="1" as="geometry">
            <mxPoint x="455" y="395" as="sourcePoint" />
            <mxPoint x="505" y="345" as="targetPoint" />
            <Array as="points">
              <mxPoint x="385" y="305" />
              <mxPoint x="295" y="305" />
              <mxPoint x="295" y="365" />
            </Array>
          </mxGeometry>
        </mxCell>
        <mxCell id="bwJjmB0yOy6E5qjPWk6F-3" value="" style="endArrow=classic;html=1;rounded=0;entryX=0.5;entryY=0;entryDx=0;entryDy=0;" parent="1" target="vFBDaTnClEPXvG8hSAZC-1" edge="1">
          <mxGeometry width="50" height="50" relative="1" as="geometry">
            <mxPoint x="525" y="295" as="sourcePoint" />
            <mxPoint x="505" y="345" as="targetPoint" />
          </mxGeometry>
        </mxCell>
        <mxCell id="bwJjmB0yOy6E5qjPWk6F-4" value="" style="endArrow=classic;html=1;rounded=0;exitX=0.5;exitY=1;exitDx=0;exitDy=0;" parent="1" source="HskousHJSDaTPaHS8hvL-5" target="HskousHJSDaTPaHS8hvL-8" edge="1">
          <mxGeometry width="50" height="50" relative="1" as="geometry">
            <mxPoint x="455" y="395" as="sourcePoint" />
            <mxPoint x="505" y="345" as="targetPoint" />
          </mxGeometry>
        </mxCell>
        <mxCell id="vFBDaTnClEPXvG8hSAZC-1" value="TCC (MFCC or MCC)" style="rounded=0;whiteSpace=wrap;html=1;" parent="1" vertex="1">
          <mxGeometry x="465" y="318.75" width="120" height="60" as="geometry" />
        </mxCell>
        <mxCell id="vFBDaTnClEPXvG8hSAZC-2" value="DT (MFCC + other audio features)" style="rounded=0;whiteSpace=wrap;html=1;" parent="1" vertex="1">
          <mxGeometry x="20" y="100" width="120" height="60" as="geometry" />
        </mxCell>
        <mxCell id="vFBDaTnClEPXvG8hSAZC-3" value="&lt;div&gt;&lt;strong&gt;Using Train/Test&lt;/strong&gt;&lt;/div&gt;&lt;div&gt;Participants are exclusive to either the Train or Test set, with audio features aggregated into a single value per participant.&lt;br&gt;&lt;/div&gt;" style="rounded=0;whiteSpace=wrap;html=1;" parent="1" vertex="1">
          <mxGeometry x="10" y="206.25" width="140" height="112.5" as="geometry" />
        </mxCell>
        <mxCell id="vFBDaTnClEPXvG8hSAZC-4" value="" style="endArrow=classic;html=1;rounded=0;exitX=0.5;exitY=1;exitDx=0;exitDy=0;entryX=0.5;entryY=0;entryDx=0;entryDy=0;" parent="1" source="vFBDaTnClEPXvG8hSAZC-2" target="vFBDaTnClEPXvG8hSAZC-3" edge="1">
          <mxGeometry width="50" height="50" relative="1" as="geometry">
            <mxPoint x="290" y="280" as="sourcePoint" />
            <mxPoint x="340" y="230" as="targetPoint" />
          </mxGeometry>
        </mxCell>
        <mxCell id="vFBDaTnClEPXvG8hSAZC-5" value="&lt;div&gt;&lt;span style=&quot;background-color: initial;&quot;&gt;Test: 66&lt;/span&gt;&lt;span style=&quot;background-color: initial;&quot;&gt;% acc.&lt;/span&gt;&lt;br&gt;&lt;/div&gt;" style="rounded=0;whiteSpace=wrap;html=1;fillColor=#05FF48;" parent="1" vertex="1">
          <mxGeometry x="20" y="430" width="120" height="60" as="geometry" />
        </mxCell>
        <mxCell id="vFBDaTnClEPXvG8hSAZC-6" value="" style="endArrow=classic;html=1;rounded=0;exitX=0.5;exitY=1;exitDx=0;exitDy=0;entryX=0.5;entryY=0;entryDx=0;entryDy=0;" parent="1" source="vFBDaTnClEPXvG8hSAZC-3" target="vFBDaTnClEPXvG8hSAZC-5" edge="1">
          <mxGeometry width="50" height="50" relative="1" as="geometry">
            <mxPoint x="290" y="280" as="sourcePoint" />
            <mxPoint x="340" y="230" as="targetPoint" />
          </mxGeometry>
        </mxCell>
        <mxCell id="vFBDaTnClEPXvG8hSAZC-8" value="" style="endArrow=none;html=1;rounded=0;exitX=0.497;exitY=-0.039;exitDx=0;exitDy=0;exitPerimeter=0;" parent="1" source="vFBDaTnClEPXvG8hSAZC-2" edge="1">
          <mxGeometry width="50" height="50" relative="1" as="geometry">
            <mxPoint x="80.00000000000006" y="90" as="sourcePoint" />
            <mxPoint x="400" y="100" as="targetPoint" />
            <Array as="points">
              <mxPoint x="80" y="90" />
              <mxPoint x="400" y="90" />
            </Array>
          </mxGeometry>
        </mxCell>
        <mxCell id="RnBTj0U5dgoCxg81ck9F-1" value="" style="endArrow=classic;html=1;rounded=0;entryX=0.5;entryY=0;entryDx=0;entryDy=0;exitX=0.5;exitY=1;exitDx=0;exitDy=0;" parent="1" source="vFBDaTnClEPXvG8hSAZC-1" target="bwJjmB0yOy6E5qjPWk6F-1" edge="1">
          <mxGeometry width="50" height="50" relative="1" as="geometry">
            <mxPoint x="500" y="430" as="sourcePoint" />
            <mxPoint x="550" y="380" as="targetPoint" />
          </mxGeometry>
        </mxCell>
        <mxCell id="RnBTj0U5dgoCxg81ck9F-2" value="" style="endArrow=classic;html=1;rounded=0;entryX=0.5;entryY=0;entryDx=0;entryDy=0;exitX=0.5;exitY=1;exitDx=0;exitDy=0;" parent="1" source="vFBDaTnClEPXvG8hSAZC-1" target="HskousHJSDaTPaHS8hvL-12" edge="1">
          <mxGeometry width="50" height="50" relative="1" as="geometry">
            <mxPoint x="520" y="380" as="sourcePoint" />
            <mxPoint x="550" y="380" as="targetPoint" />
            <Array as="points">
              <mxPoint x="525" y="390" />
              <mxPoint x="360" y="390" />
            </Array>
          </mxGeometry>
        </mxCell>
      </root>
    </mxGraphModel>
  </diagram>
</mxfile>
